<svg xmlns="http://www.w3.org/2000/svg" version="1.1" xmlns:xlink="http://www.w3.org/1999/xlink" xmlns:svgjs="http://svgjs.dev/svgjs" width="1500" height="1500" viewBox="0 0 1500 1500"><rect width="1500" height="1500" fill="#000000"></rect><g transform="matrix(0.6666666666666666,0,0,0.6666666666666666,249.31476160263003,434.6666666666667)"><svg viewBox="0 0 317 200" data-background-color="#000000" preserveAspectRatio="xMidYMid meet" height="946" width="1500" xmlns="http://www.w3.org/2000/svg" xmlns:xlink="http://www.w3.org/1999/xlink"><g id="tight-bounds" transform="matrix(1,0,0,1,0.21722057196629407,0)"><svg viewBox="0 0 316.5655588560674 200" height="200" width="316.5655588560674"><g><svg viewBox="0 0 318.14838665034773 200.99999999999997" height="200" width="316.5655588560674"><g><rect width="18.0362064" height="200.99999999999997" x="125.77597885952713" y="0" fill="#ff0000" opacity="1" stroke-width="0" stroke="transparent" fill-opacity="1" class="rect-yte-0" data-fill-palette-color="primary" rx="1%" id="yte-0" data-palette-color="#ff0000"></rect></g><g transform="matrix(1,0,0,1,191.02738525952714,0.4999999999999858)"><svg viewBox="0 0 127.12100139082058 200" height="200" width="127.12100139082058"><g id="textblocktransform"><svg viewBox="0 0 127.12100139082058 200" height="200" width="127.12100139082058" id="textblock"><g><svg viewBox="0 0 127.12100139082058 200" height="200" width="127.12100139082058"><g transform="matrix(1,0,0,1,0,0)"><svg width="127.12100139082058" viewBox="2.55 -35.3 22.849999999999998 35.949999999999996" height="200" data-palette-color="#ff0000"><path d="M13.75 0.65Q8.2 0.65 5.38-1.43 2.55-3.5 2.55-6.75L2.55-6.75Q2.55-9.65 5.35-9.65L5.35-9.65Q5.9-9.65 6.25-9.6L6.25-9.6Q6-8.85 6.1-7.5L6.1-7.5Q6.25-4.6 8.38-2.9 10.5-1.2 14.15-1.2L14.15-1.2Q17.45-1.2 19.43-2.75 21.4-4.3 21.4-7.3L21.4-7.3Q21.4-9.25 20.53-10.65 19.65-12.05 18.03-13.25 16.4-14.45 13.4-16.1L13.4-16.1Q10-18 8.05-19.43 6.1-20.85 4.95-22.7 3.8-24.55 3.8-27.1L3.8-27.1Q3.8-31.2 6.8-33.25 9.8-35.3 14.4-35.3L14.4-35.3Q18.9-35.3 21.63-33.65 24.35-32 24.35-29.1L24.35-29.1Q24.35-27 22.35-26.8L22.35-26.8Q21.95-26.7 21.7-26.7L21.7-26.7Q21.4-26.7 20.8-26.8L20.8-26.8Q20.95-27.35 20.95-27.8L20.95-27.8Q20.95-28.4 20.8-28.9L20.8-28.9Q20.6-31.05 18.75-32.25 16.9-33.45 14-33.45L14-33.45Q11.35-33.45 9.47-32.25 7.6-31.05 7.6-28.35L7.6-28.35Q7.6-26.45 8.55-25.03 9.5-23.6 11.1-22.5 12.7-21.4 15.65-19.75L15.65-19.75Q18.8-18.05 20.85-16.55 22.9-15.05 24.15-13.05 25.4-11.05 25.4-8.4L25.4-8.4Q25.4-6 24.23-3.95 23.05-1.9 20.45-0.63 17.85 0.65 13.75 0.65L13.75 0.65Z" opacity="1" transform="matrix(1,0,0,1,0,0)" fill="#ff0000" class="wordmark-text-0" data-fill-palette-color="primary" id="text-0"></path></svg></g></svg></g></svg></g></svg></g><g transform="matrix(1,0,0,1,0,64.07532355359734)"><svg viewBox="0 0 78.56077885952712 72.84935289280529" height="72.84935289280529" width="78.56077885952712"><g><svg xmlns="http://www.w3.org/2000/svg" xml:space="preserve" viewBox="2.1749999999999985 10.600000000000001 85.62500000000001 79.4" x="0" y="0" height="72.84935289280529" width="78.56077885952712" class="icon-icon-0" data-fill-palette-color="accent" id="icon-0"><circle cx="35.6" cy="28.1" r="1.6" fill="#00ffff" data-fill-palette-color="accent"></circle><circle cx="45.7" cy="28.1" r="1.6" fill="#00ffff" data-fill-palette-color="accent"></circle><path d="M82.8 34.5H53.5c0.5-1.7 0.8-3.6 0.8-5.5 0-8.9-1.1-18.4-13.3-18.4-6 0-13.2 3.2-13.3 18.4 0 2.1 0.4 4.1 1 6-1.7 0.8-2.9 2.5-2.9 4.5v5.9c-4.7 1.8-8.9 5.7-8.9 12.6v4.3h-12c-0.8 0-1.6 0.3-2.1 0.9-0.5 0.7-0.7 1.5-0.6 2.3L6 86.8c0.1 0.5 0.2 0.9 0.5 1.3-0.4 0.1-0.7 0.5-0.7 0.9 0 0.5 0.4 0.9 0.9 1h66.7c0.1 0 0.2 0 0.2-0.1 1.4-0.3 2.5-1.5 2.5-2.9 0-1.6-1.3-3-3-3h-7.7v-6.1h17.4c2.7 0 5-2.2 5-5V39.5c0-2.8-2.3-5-5-5M33.9 20.4c-0.7 1-1.6 1.6-2.3 1.6-0.4 0-0.6-0.1-0.8-0.4 0-0.1-0.1-0.1-0.1-0.1q0.6-2.25 1.5-3.9c0.3 1 0.9 1.9 1.7 2.8m2.1-0.7l-0.3-0.3c-1.1-1.2-1.8-2.5-2-3.9 0.4-0.4 0.8-0.8 1.2-1.1 0.6 1.8 1.9 3.4 3.8 4.6 2.1 1.3 4.6 2 7.3 2 1.8 0 3.7-0.3 5.5-1 0.2 0.6 0.3 1.2 0.4 1.9-4.9 1.8-10.4 1.5-14.2-0.9-0.7-0.4-1.2-0.9-1.7-1.3m2.6-6.9c1.7 3.4 5 4.3 8.2 4.3 1.2 0 2.3-0.2 3.4-0.3l0.6 1.2c-4 1.4-8.1 1.1-11.2-0.8-1.6-1.1-2.7-2.5-3-3.9 0.7-0.1 1.3-0.3 2-0.5m2.5-0.2c3.4 0 5.9 0.8 7.6 2.3-4.7 0.4-6.7-0.7-7.7-2.3zM29.9 29c0-1.9 0.1-3.7 0.3-5.2 0.4 0.2 0.9 0.3 1.4 0.3h0.1c1.4-0.1 2.7-1 3.7-2.3 0.4 0.3 0.8 0.6 1.3 0.9 2.6 1.6 5.7 2.4 8.9 2.4 2.2 0 4.5-0.4 6.6-1.1 0.1 1.5 0.2 3.2 0.2 5 0.1 1.9-0.2 3.8-0.8 5.5H30.7c-0.5-1.7-0.8-3.6-0.8-5.5M4.2 65.2c-0.1-0.3 0-0.5 0.1-0.6s0.3-0.2 0.5-0.2h14.6c0.6 0 1.2 0.5 1.3 1.1l3.8 21.3c0.1 0.3 0 0.5-0.1 0.6s-0.3 0.2-0.5 0.2h-7.6l2-11.8v-0.2c0-1.6-1.5-2.9-2.7-2.9h-3.9c-1.2 0-2.6 1.2-2.7 2.8l-1.4 8.8z m9.9 22.4h-5l1.8-11.8v-0.2c0-0.4 0.5-0.8 0.6-0.8h3.9c0.2 0.1 0.6 0.4 0.6 0.8z m59-1.6c0.5 0 0.9 0.4 0.9 0.9s-0.4 0.9-0.9 0.9H40.4c-0.5 0-0.9-0.4-0.9-0.9s0.4-0.9 0.9-0.9h32.7m-32.7-2c-1.6 0-3 1.3-3 3 0 0.4 0.1 0.7 0.2 1H26.4c0.2-0.5 0.3-1.1 0.2-1.6l-3.8-21.3c-0.2-1.6-1.7-2.8-3.3-2.8h-0.6V58c0-6.1 3.8-9 6.9-10.3v25.2c0 2.8 2.3 5 5 5h17.4V84z m9.9-0.1V56.7c0-1.6 1.5-2.9 2.4-2.9h8.2c1 0 2.4 1.3 2.4 2.9v27.2z m35.4-11c0 1.6-1.3 2.9-2.9 2.9H65.4V56.7c0-2.8-2.5-5-4.5-5h-8.2c-2.1 0-4.5 2.2-4.5 5v19.1H30.8c-1.6 0-2.9-1.3-2.9-2.9V39.5c0-1.6 1.3-2.9 2.9-2.9h52c1.6 0 2.9 1.3 2.9 2.9z" fill="#00ffff" data-fill-palette-color="accent"></path></svg></g></svg></g></svg></g><defs></defs></svg><rect width="316.5655588560674" height="200" fill="none" stroke="none" visibility="hidden"></rect></g></svg></g></svg>