<svg xmlns="http://www.w3.org/2000/svg" version="1.1" xmlns:xlink="http://www.w3.org/1999/xlink" xmlns:svgjs="http://svgjs.dev/svgjs" width="1500" height="935" viewBox="0 0 1500 935"><g transform="matrix(1,0,0,1,-0.9090909090909918,0.3785425101214628)"><svg viewBox="0 0 396 247" data-background-color="#000000" preserveAspectRatio="xMidYMid meet" height="935" width="1500" xmlns="http://www.w3.org/2000/svg" xmlns:xlink="http://www.w3.org/1999/xlink"><g id="tight-bounds" transform="matrix(1,0,0,1,0.2400000000000091,-0.09999999999999432)"><svg viewBox="0 0 395.52 247.2" height="247.2" width="395.52"><g><svg></svg></g><g><svg viewBox="0 0 395.52 247.2" height="247.2" width="395.52"><mask id="03025e49-3fa2-4b41-be1a-2ace722a05f7"><rect width="640" height="400" fill="white"></rect><g transform="matrix(1,0,0,1,39.55199999999999,98.21588059701492)"><svg viewBox="0 0 316.416 50.76823880597015" height="50.76823880597015" width="316.416"><g><svg viewBox="0 0 316.416 50.76823880597015" height="50.76823880597015" width="316.416"><g><svg viewBox="0 0 316.416 50.76823880597015" height="50.76823880597015" width="316.416"><g><svg viewBox="0 0 316.416 50.76823880597015" height="50.76823880597015" width="316.416"><g id="SvgjsG4182"><svg viewBox="0 0 316.416 50.76823880597015" height="50.76823880597015" width="316.416" id="SvgjsSvg4181"><g><svg viewBox="0 0 316.416 50.76823880597015" height="50.76823880597015" width="316.416"><g transform="matrix(1,0,0,1,0,0)"><svg width="316.416" viewBox="-0.040000000000000036 -41.94 282.58000000000004 46.18" height="50.76823880597015" data-palette-color="#ffffff"><path d="M21.04-30.42L21.04-30.42Q20.8-30.52 20.46-30.76 20.12-31.01 19.48-31.23 18.85-31.45 17.87-31.59 16.89-31.74 15.38-31.64L15.38-31.64 15.38-36.57Q17.53-36.52 19.75-36.11 21.97-35.69 23.34-34.81L23.34-34.81Q23.05-34.18 22.66-33.42 22.27-32.67 21.92-32.01 21.58-31.35 21.34-30.91 21.09-30.47 21.04-30.42ZM4.2-26.51L4.2-26.51Q4.2-28.66 4.93-30.37 5.66-32.08 6.91-33.37 8.15-34.67 9.84-35.42 11.52-36.18 13.38-36.43L13.38-36.43 13.38-31.3Q11.82-30.76 10.79-29.42 9.77-28.08 9.77-26.71L9.77-26.71Q9.77-24.8 10.79-23.63 11.82-22.46 13.38-21.58L13.38-21.58 13.38-16.02Q11.77-16.8 10.16-17.7 8.54-18.6 7.23-19.82 5.91-21.04 5.05-22.66 4.2-24.27 4.2-26.51ZM3.96-2.39L4.98-6.59Q5.66-6.2 6.71-5.83 7.76-5.47 8.89-5.15 10.01-4.83 11.13-4.64 12.26-4.44 13.23-4.44L13.23-4.44 13.38-4.44 13.38 0.2 13.28 0.2Q12.11 0.2 10.86 0.07 9.62-0.05 8.35-0.34 7.08-0.63 5.93-1.15 4.79-1.66 3.96-2.39L3.96-2.39ZM15.38-14.89L15.38-20.61Q16.99-19.87 18.68-19.04 20.36-18.21 21.73-17.02 23.1-15.82 23.97-14.11 24.85-12.4 24.85-9.86L24.85-9.86Q24.85-8.11 24.19-6.45 23.54-4.79 22.34-3.44 21.14-2.1 19.38-1.17 17.63-0.24 15.38 0.05L15.38 0.05 15.38-4.64Q19.38-5.62 19.38-9.96L19.38-9.96Q19.38-11.67 18.26-12.79 17.14-13.92 15.38-14.89L15.38-14.89ZM30.66 0L30.66-37.94 36.57-37.94 36.57 0 30.66 0ZM51.17-24.51L51.17-24.51Q52-23.68 52.46-22.58 52.93-21.48 53.15-20.29 53.37-19.09 53.42-17.87 53.46-16.65 53.46-15.48L53.46-15.48 53.46-0.98 53.46 0 47.51 0 47.51-14.99Q47.51-16.65 47.36-18.16 47.21-19.68 46.68-20.85 46.14-22.02 45.21-22.68 44.28-23.34 42.62-23.34L42.62-23.34Q41.94-23.34 40.79-23.12 39.65-22.9 38.57-22.41L38.57-22.41 38.57-26.17Q39.89-26.86 41.43-27.34 42.97-27.83 44.43-27.83L44.43-27.83Q46.63-27.83 48.14-26.93 49.66-26.03 51.17-24.51ZM60.4-27.54L65.67-27.54 66.3-24.71 66.3-9.77 66.3-9.67 66.3 0 60.4 0 60.4-27.54ZM68.31-21.34L68.31-26.32Q69.53-27 71.24-27.37 72.94-27.73 75.87-27.73L75.87-27.73 75.87-21.58Q74.51-21.97 72.55-22.02L72.55-22.02Q71.48-22.02 70.38-21.85 69.28-21.68 68.31-21.34L68.31-21.34ZM94.96-23.19L94.96-27.78Q97.6-27.54 99.72-26.37 101.85-25.2 103.36-23.34 104.88-21.48 105.68-19.09 106.49-16.7 106.49-14.11L106.49-14.11Q106.49-12.94 106.34-11.77L106.34-11.77 89.59-11.77 89.59-16.06 100.87-16.06Q100.87-17.33 100.46-18.51 100.04-19.68 99.24-20.68 98.43-21.68 97.36-22.36 96.28-23.05 94.96-23.19L94.96-23.19ZM94.77-4.59L94.77-4.59Q95.31-4.59 96.11-4.71 96.92-4.83 97.82-5.15 98.72-5.47 99.63-5.96 100.53-6.45 101.21-7.13L101.21-7.13 103.36-3.86Q101.75-1.86 99.6-0.83 97.45 0.2 94.13 0.2L94.13 0.2Q91.45 0.2 89.1-0.9 86.76-2 85.1-3.91 83.44-5.81 82.46-8.35 81.49-10.89 81.49-13.82L81.49-13.82Q81.49-16.6 82.39-19.09 83.29-21.58 84.86-23.46 86.42-25.34 88.49-26.51 90.57-27.69 92.96-27.83L92.96-27.83 92.96-23.14Q91.15-22.8 89.98-21.68 88.81-20.56 88.15-19.12 87.49-17.68 87.22-16.16 86.96-14.65 86.96-13.57L86.96-13.57Q86.96-11.67 87.42-10.03 87.88-8.4 88.86-7.2 89.84-6.01 91.28-5.3 92.72-4.59 94.77-4.59ZM114.59-16.75L130.12-16.75 130.12-11.82 114.59-11.82 114.59-16.75ZM159.41-23.58L156.77-20.41Q156.04-21.29 154.75-22.05 153.45-22.8 151.31-22.95L151.31-22.95 151.31-27.64Q153.99-27.49 155.92-26.49 157.85-25.49 159.41-23.58L159.41-23.58ZM151.31 0.2L151.31-4.64Q153.06-4.83 154.31-5.49 155.55-6.15 156.68-7.03L156.68-7.03 158.87-3.86Q157.36-1.95 155.6-0.95 153.84 0.05 151.31 0.2L151.31 0.2ZM137.68-13.77L137.68-13.77Q137.68-16.55 138.49-18.99 139.29-21.44 140.86-23.29 142.42-25.15 144.54-26.29 146.67-27.44 149.3-27.64L149.3-27.64 149.3-22.9Q146.86-22.36 145.4-19.9 143.93-17.43 143.93-13.92L143.93-13.92Q143.93-12.11 144.3-10.52 144.67-8.94 145.35-7.71 146.03-6.49 147.03-5.66 148.03-4.83 149.3-4.64L149.3-4.64 149.3 0.2Q146.62 0.05 144.47-1.1 142.32-2.25 140.81-4.13 139.29-6.01 138.49-8.5 137.68-10.99 137.68-13.77ZM179.97-23.1L179.97-27.69Q182.65-27.54 184.85-26.39 187.05-25.24 188.53-23.36 190.02-21.48 190.85-18.99 191.68-16.5 191.68-13.67L191.68-13.67Q191.68-10.84 190.83-8.37 189.98-5.91 188.46-4.08 186.95-2.25 184.75-1.12 182.55 0 179.97 0.2L179.97 0.2 179.97-4.49Q182.41-5.03 183.94-7.57 185.48-10.11 185.48-13.67L185.48-13.67Q185.48-15.48 185.12-17.07 184.75-18.65 184.02-19.92 183.29-21.19 182.26-22.02 181.24-22.85 179.97-23.1L179.97-23.1ZM166.34-13.77L166.34-13.77Q166.34-16.6 167.17-19.04 168-21.48 169.54-23.32 171.08-25.15 173.23-26.27 175.38-27.39 177.96-27.64L177.96-27.64 177.96-23.1Q175.52-22.56 174.06-20.02 172.59-17.48 172.59-13.92L172.59-13.92Q172.59-12.11 172.96-10.5 173.32-8.89 174.01-7.62 174.69-6.35 175.69-5.52 176.69-4.69 177.96-4.49L177.96-4.49 177.96 0.2Q175.28 0 173.13-1.15 170.98-2.29 169.47-4.15 167.95-6.01 167.15-8.5 166.34-10.99 166.34-13.77ZM216.34-37.94L222.3-37.94 222.3 0 216.68 0 216.34-3.27 216.34-37.94ZM197.59-14.16L197.59-14.16Q197.59-17.97 198.64-20.56 199.69-23.14 201.35-24.76 203.01-26.37 205.04-27.08 207.06-27.78 209.02-27.78L209.02-27.78Q210.53-27.78 211.9-27.44 213.26-27.1 214.34-26.46L214.34-26.46 214.34-21.29Q213.51-22.17 212.48-22.71 211.46-23.24 210.19-23.24L210.19-23.24Q208.67-23.24 207.5-22.49 206.33-21.73 205.52-20.41 204.72-19.09 204.28-17.38 203.84-15.67 203.84-13.72L203.84-13.72Q203.84-11.77 204.33-10.08 204.82-8.4 205.65-7.13 206.48-5.86 207.67-5.13 208.87-4.39 210.29-4.39L210.29-4.39Q212.68-4.39 214.34-6.3L214.34-6.3 214.34-1.22Q213.17-0.59 211.63-0.17 210.09 0.24 208.38 0.24L208.38 0.24Q206.43 0.24 204.55-0.46 202.67-1.17 201.2-2.78L201.2-2.78Q199.35-4.88 198.47-7.98 197.59-11.08 197.59-14.16ZM243.44-23.19L243.44-27.78Q246.07-27.54 248.2-26.37 250.32-25.2 251.84-23.34 253.35-21.48 254.15-19.09 254.96-16.7 254.96-14.11L254.96-14.11Q254.96-12.94 254.81-11.77L254.81-11.77 238.07-11.77 238.07-16.06 249.35-16.06Q249.35-17.33 248.93-18.51 248.52-19.68 247.71-20.68 246.9-21.68 245.83-22.36 244.76-23.05 243.44-23.19L243.44-23.19ZM243.24-4.59L243.24-4.59Q243.78-4.59 244.58-4.71 245.39-4.83 246.29-5.15 247.2-5.47 248.1-5.96 249-6.45 249.69-7.13L249.69-7.13 251.84-3.86Q250.22-1.86 248.08-0.83 245.93 0.2 242.61 0.2L242.61 0.2Q239.92 0.2 237.58-0.9 235.23-2 233.57-3.91 231.91-5.81 230.94-8.35 229.96-10.89 229.96-13.82L229.96-13.82Q229.96-16.6 230.86-19.09 231.77-21.58 233.33-23.46 234.89-25.34 236.97-26.51 239.04-27.69 241.44-27.83L241.44-27.83 241.44-23.14Q239.63-22.8 238.46-21.68 237.28-20.56 236.63-19.12 235.97-17.68 235.7-16.16 235.43-14.65 235.43-13.57L235.43-13.57Q235.43-11.67 235.89-10.03 236.36-8.4 237.33-7.2 238.31-6.01 239.75-5.3 241.19-4.59 243.24-4.59ZM263.06-27.54L268.34-27.54 268.97-24.71 268.97-9.77 268.97-9.67 268.97 0 263.06 0 263.06-27.54ZM270.97-21.34L270.97-26.32Q272.19-27 273.9-27.37 275.61-27.73 278.54-27.73L278.54-27.73 278.54-21.58Q277.17-21.97 275.22-22.02L275.22-22.02Q274.15-22.02 273.05-21.85 271.95-21.68 270.97-21.34L270.97-21.34Z" opacity="1" transform="matrix(1,0,0,1,0,0)" fill="black" class="wordmark-text-0" id="SvgjsPath4180" stroke-width="7" stroke="black" stroke-linejoin="round"></path></svg></g></svg></g></svg></g></svg></g></svg></g></svg></g></svg></g></mask><g transform="matrix(1,0,0,1,39.55199999999999,98.21588059701492)"><svg viewBox="0 0 316.416 50.76823880597015" height="50.76823880597015" width="316.416"><g><svg viewBox="0 0 316.416 50.76823880597015" height="50.76823880597015" width="316.416"><g><svg viewBox="0 0 316.416 50.76823880597015" height="50.76823880597015" width="316.416"><g><svg viewBox="0 0 316.416 50.76823880597015" height="50.76823880597015" width="316.416"><g id="textblocktransform"><svg viewBox="0 0 316.416 50.76823880597015" height="50.76823880597015" width="316.416" id="textblock"><g><svg viewBox="0 0 316.416 50.76823880597015" height="50.76823880597015" width="316.416"><g transform="matrix(1,0,0,1,0,0)"><svg width="316.416" viewBox="-0.040000000000000036 -41.94 282.58000000000004 46.18" height="50.76823880597015" data-palette-color="#ffffff"><path d="M21.04-30.42L21.04-30.42Q20.8-30.52 20.46-30.76 20.12-31.01 19.48-31.23 18.85-31.45 17.87-31.59 16.89-31.74 15.38-31.64L15.38-31.64 15.38-36.57Q17.53-36.52 19.75-36.11 21.97-35.69 23.34-34.81L23.34-34.81Q23.05-34.18 22.66-33.42 22.27-32.67 21.92-32.01 21.58-31.35 21.34-30.91 21.09-30.47 21.04-30.42ZM4.2-26.51L4.2-26.51Q4.2-28.66 4.93-30.37 5.66-32.08 6.91-33.37 8.15-34.67 9.84-35.42 11.52-36.18 13.38-36.43L13.38-36.43 13.38-31.3Q11.82-30.76 10.79-29.42 9.77-28.08 9.77-26.71L9.77-26.71Q9.77-24.8 10.79-23.63 11.82-22.46 13.38-21.58L13.38-21.58 13.38-16.02Q11.77-16.8 10.16-17.7 8.54-18.6 7.23-19.82 5.91-21.04 5.05-22.66 4.2-24.27 4.2-26.51ZM3.96-2.39L4.98-6.59Q5.66-6.2 6.71-5.83 7.76-5.47 8.89-5.15 10.01-4.83 11.13-4.64 12.26-4.44 13.23-4.44L13.23-4.44 13.38-4.44 13.38 0.2 13.28 0.2Q12.11 0.2 10.86 0.07 9.62-0.05 8.35-0.34 7.08-0.63 5.93-1.15 4.79-1.66 3.96-2.39L3.96-2.39ZM15.38-14.89L15.38-20.61Q16.99-19.87 18.68-19.04 20.36-18.21 21.73-17.02 23.1-15.82 23.97-14.11 24.85-12.4 24.85-9.86L24.85-9.86Q24.85-8.11 24.19-6.45 23.54-4.79 22.34-3.44 21.14-2.1 19.38-1.17 17.63-0.24 15.38 0.05L15.38 0.05 15.38-4.64Q19.38-5.62 19.38-9.96L19.38-9.96Q19.38-11.67 18.26-12.79 17.14-13.92 15.38-14.89L15.38-14.89ZM30.66 0L30.66-37.94 36.57-37.94 36.57 0 30.66 0ZM51.17-24.51L51.17-24.51Q52-23.68 52.46-22.58 52.93-21.48 53.15-20.29 53.37-19.09 53.42-17.87 53.46-16.65 53.46-15.48L53.46-15.48 53.46-0.98 53.46 0 47.51 0 47.51-14.99Q47.51-16.65 47.36-18.16 47.21-19.68 46.68-20.85 46.14-22.02 45.21-22.68 44.28-23.34 42.62-23.34L42.62-23.34Q41.94-23.34 40.79-23.12 39.65-22.9 38.57-22.41L38.57-22.41 38.57-26.17Q39.89-26.86 41.43-27.34 42.97-27.83 44.43-27.83L44.43-27.83Q46.63-27.83 48.14-26.93 49.66-26.03 51.17-24.51ZM60.4-27.54L65.67-27.54 66.3-24.71 66.3-9.77 66.3-9.67 66.3 0 60.4 0 60.4-27.54ZM68.31-21.34L68.31-26.32Q69.53-27 71.24-27.37 72.94-27.73 75.87-27.73L75.87-27.73 75.87-21.58Q74.51-21.97 72.55-22.02L72.55-22.02Q71.48-22.02 70.38-21.85 69.28-21.68 68.31-21.34L68.31-21.34ZM94.96-23.19L94.96-27.78Q97.6-27.54 99.72-26.37 101.85-25.2 103.36-23.34 104.88-21.48 105.68-19.09 106.49-16.7 106.49-14.11L106.49-14.11Q106.49-12.94 106.34-11.77L106.34-11.77 89.59-11.77 89.59-16.06 100.87-16.06Q100.87-17.33 100.46-18.51 100.04-19.68 99.24-20.68 98.43-21.68 97.36-22.36 96.28-23.05 94.96-23.19L94.96-23.19ZM94.77-4.59L94.77-4.59Q95.31-4.59 96.11-4.71 96.92-4.83 97.82-5.15 98.72-5.47 99.63-5.96 100.53-6.45 101.21-7.13L101.21-7.13 103.36-3.86Q101.75-1.86 99.6-0.83 97.45 0.2 94.13 0.2L94.13 0.2Q91.45 0.2 89.1-0.9 86.76-2 85.1-3.91 83.44-5.81 82.46-8.35 81.49-10.89 81.49-13.82L81.49-13.82Q81.49-16.6 82.39-19.09 83.29-21.58 84.86-23.46 86.42-25.34 88.49-26.51 90.57-27.69 92.96-27.83L92.96-27.83 92.96-23.14Q91.15-22.8 89.98-21.68 88.81-20.56 88.15-19.12 87.49-17.68 87.22-16.16 86.96-14.65 86.96-13.57L86.96-13.57Q86.96-11.67 87.42-10.03 87.88-8.4 88.86-7.2 89.84-6.01 91.28-5.3 92.72-4.59 94.77-4.59ZM114.59-16.75L130.12-16.75 130.12-11.82 114.59-11.82 114.59-16.75ZM159.41-23.58L156.77-20.41Q156.04-21.29 154.75-22.05 153.45-22.8 151.31-22.95L151.31-22.95 151.31-27.64Q153.99-27.49 155.92-26.49 157.85-25.49 159.41-23.58L159.41-23.58ZM151.31 0.2L151.31-4.64Q153.06-4.83 154.31-5.49 155.55-6.15 156.68-7.03L156.68-7.03 158.87-3.86Q157.36-1.95 155.6-0.95 153.84 0.05 151.31 0.2L151.31 0.2ZM137.68-13.77L137.68-13.77Q137.68-16.55 138.49-18.99 139.29-21.44 140.86-23.29 142.42-25.15 144.54-26.29 146.67-27.44 149.3-27.64L149.3-27.64 149.3-22.9Q146.86-22.36 145.4-19.9 143.93-17.43 143.93-13.92L143.93-13.92Q143.93-12.11 144.3-10.52 144.67-8.94 145.35-7.71 146.03-6.49 147.03-5.66 148.03-4.83 149.3-4.64L149.3-4.64 149.3 0.2Q146.62 0.05 144.47-1.1 142.32-2.25 140.81-4.13 139.29-6.01 138.49-8.5 137.68-10.99 137.68-13.77ZM179.97-23.1L179.97-27.69Q182.65-27.54 184.85-26.39 187.05-25.24 188.53-23.36 190.02-21.48 190.85-18.99 191.68-16.5 191.68-13.67L191.68-13.67Q191.68-10.84 190.83-8.37 189.98-5.91 188.46-4.08 186.95-2.25 184.75-1.12 182.55 0 179.97 0.2L179.97 0.2 179.97-4.49Q182.41-5.03 183.94-7.57 185.48-10.11 185.48-13.67L185.48-13.67Q185.48-15.48 185.12-17.07 184.75-18.65 184.02-19.92 183.29-21.19 182.26-22.02 181.24-22.85 179.97-23.1L179.97-23.1ZM166.34-13.77L166.34-13.77Q166.34-16.6 167.17-19.04 168-21.48 169.54-23.32 171.08-25.15 173.23-26.27 175.38-27.39 177.96-27.64L177.96-27.64 177.96-23.1Q175.52-22.56 174.06-20.02 172.59-17.48 172.59-13.92L172.59-13.92Q172.59-12.11 172.96-10.5 173.32-8.89 174.01-7.62 174.69-6.35 175.69-5.52 176.69-4.69 177.96-4.49L177.96-4.49 177.96 0.2Q175.28 0 173.13-1.15 170.98-2.29 169.47-4.15 167.95-6.01 167.15-8.5 166.34-10.99 166.34-13.77ZM216.34-37.94L222.3-37.94 222.3 0 216.68 0 216.34-3.27 216.34-37.94ZM197.59-14.16L197.59-14.16Q197.59-17.97 198.64-20.56 199.69-23.14 201.35-24.76 203.01-26.37 205.04-27.08 207.06-27.78 209.02-27.78L209.02-27.78Q210.53-27.78 211.9-27.44 213.26-27.1 214.34-26.46L214.34-26.46 214.34-21.29Q213.51-22.17 212.48-22.71 211.46-23.24 210.19-23.24L210.19-23.24Q208.67-23.24 207.5-22.49 206.33-21.73 205.52-20.41 204.72-19.09 204.28-17.38 203.84-15.67 203.84-13.72L203.84-13.72Q203.84-11.77 204.33-10.08 204.82-8.4 205.65-7.13 206.48-5.86 207.67-5.13 208.87-4.39 210.29-4.39L210.29-4.39Q212.68-4.39 214.34-6.3L214.34-6.3 214.34-1.22Q213.17-0.59 211.63-0.17 210.09 0.24 208.38 0.24L208.38 0.24Q206.43 0.24 204.55-0.46 202.67-1.17 201.2-2.78L201.2-2.78Q199.35-4.88 198.47-7.98 197.59-11.08 197.59-14.16ZM243.44-23.19L243.44-27.78Q246.07-27.54 248.2-26.37 250.32-25.2 251.84-23.34 253.35-21.48 254.15-19.09 254.96-16.7 254.96-14.11L254.96-14.11Q254.96-12.94 254.81-11.77L254.81-11.77 238.07-11.77 238.07-16.06 249.35-16.06Q249.35-17.33 248.93-18.51 248.52-19.68 247.71-20.68 246.9-21.68 245.83-22.36 244.76-23.05 243.44-23.19L243.44-23.19ZM243.24-4.59L243.24-4.59Q243.78-4.59 244.58-4.71 245.39-4.83 246.29-5.15 247.2-5.47 248.1-5.96 249-6.45 249.69-7.13L249.69-7.13 251.84-3.86Q250.22-1.86 248.08-0.83 245.93 0.2 242.61 0.2L242.61 0.2Q239.92 0.2 237.58-0.9 235.23-2 233.57-3.91 231.91-5.81 230.94-8.35 229.96-10.89 229.96-13.82L229.96-13.82Q229.96-16.6 230.86-19.09 231.77-21.58 233.33-23.46 234.89-25.34 236.97-26.51 239.04-27.69 241.44-27.83L241.44-27.83 241.44-23.14Q239.63-22.8 238.46-21.68 237.28-20.56 236.63-19.12 235.97-17.68 235.7-16.16 235.43-14.65 235.43-13.57L235.43-13.57Q235.43-11.67 235.89-10.03 236.36-8.4 237.33-7.2 238.31-6.01 239.75-5.3 241.19-4.59 243.24-4.59ZM263.06-27.54L268.34-27.54 268.97-24.71 268.97-9.77 268.97-9.67 268.97 0 263.06 0 263.06-27.54ZM270.97-21.34L270.97-26.32Q272.19-27 273.9-27.37 275.61-27.73 278.54-27.73L278.54-27.73 278.54-21.58Q277.17-21.97 275.22-22.02L275.22-22.02Q274.15-22.02 273.05-21.85 271.95-21.68 270.97-21.34L270.97-21.34Z" opacity="1" transform="matrix(1,0,0,1,0,0)" fill="#ffffff" class="wordmark-text-0" data-fill-palette-color="primary" id="text-0"></path></svg></g></svg></g></svg></g></svg></g></svg></g></svg></g></svg></g><g mask="url(#03025e49-3fa2-4b41-be1a-2ace722a05f7)"><g transform="matrix(2.9649334945586454, 0, 0, 2.9649334945586454, 75.01175332527208, 1)"><svg xmlns="http://www.w3.org/2000/svg" xmlns:xlink="http://www.w3.org/1999/xlink" version="1.1" x="0" y="0" viewBox="3.7 4.3 82.8 82.7" enable-background="new 0 0 90 90" xml:space="preserve" height="82.7" width="82.8" class="icon-none" data-fill-palette-color="accent" id="none"><g fill="#ff0000" data-fill-palette-color="accent"><path fill="#ff0000" d="M45.1 87C22.3 87 3.8 68.5 3.8 45.7S22.3 4.3 45.1 4.3 86.5 22.9 86.5 45.7 67.9 87 45.1 87M45.1 6.3C23.4 6.3 5.8 23.9 5.8 45.7 5.8 67.4 23.4 85 45.1 85S84.5 67.3 84.5 45.6 66.8 6.3 45.1 6.3" data-fill-palette-color="accent"></path><path fill="#ff0000" d="M45 87C33 87 22.6 68.4 22.6 45.6S33 4.3 45 4.3V6.3C34 6.3 24.6 24 24.6 45.7S34 85 45 85z" data-fill-palette-color="accent"></path><path fill="#ff0000" d="M45 87V85C56 85 65.4 67.3 65.4 45.6S56 6.3 45 6.3V4.3C57 4.3 67.4 22.9 67.4 45.7S57 87 45 87" data-fill-palette-color="accent"></path><path fill="#ff0000" d="M43 87V85S42.4 85.2 42.3 85.2C43.2 83.8 44.5 69.3 44.5 45.6S43.3 7.4 42.4 6C42.4 6.1 43 6.3 43 6.3V4.3C44 4.3 44.9 4.3 45.8 17.1 46.3 24.7 46.5 34.9 46.5 45.7S46.3 66.7 45.8 74.3C45 87 44 87 43 87" data-fill-palette-color="accent"></path><path fill="#ff0000" d="M86.4 43H84.4C84.4 32 66.7 22.6 45 22.6 23.4 22.6 5.7 32 5.7 43H3.7C3.7 31 22.3 20.6 45.1 20.6S86.4 31 86.4 43" data-fill-palette-color="accent"></path><path fill="#ff0000" d="M86.4 44H84.4C84.4 42 70.9 38.3 45 38.3 19.2 38.3 5.7 42 5.7 44H3.7C3.7 37 30.8 36.3 45.1 36.3S86.4 37 86.4 44" data-fill-palette-color="accent"></path><path fill="#ff0000" d="M45.1 73.4C22.3 73.4 3.7 63 3.7 51H5.7C5.7 62 23.4 71.4 45.1 71.4S84.5 62 84.5 51H86.5C86.4 63 67.9 73.4 45.1 73.4" data-fill-palette-color="accent"></path><path fill="#ff0000" d="M45.1 57.3C25 57.3 3.7 54 3.7 47H5.7C5.7 49 8.6 50.8 16.7 52.6 24.3 54.3 34.3 55.3 45 55.3S65.8 54.3 73.3 52.6C81.4 50.7 84.3 49 84.3 47H86.3C86.4 54 65.1 57.3 45.1 57.3" data-fill-palette-color="accent"></path></g></svg></g></g></svg></g><defs></defs></svg><rect width="395.52" height="247.2" fill="none" stroke="none" visibility="hidden"></rect></g></svg></g></svg>